<svg width="36" height="28" viewBox="0 0 36 28" fill="none" xmlns="http://www.w3.org/2000/svg">
<path d="M30.4755 2.49353C28.181 1.43645 25.7205 0.657643 23.1478 0.211588C23.101 0.202979 23.0542 0.224493 23.0301 0.267521C22.7136 0.832618 22.3631 1.56983 22.1176 2.14928C19.3506 1.73335 16.5978 1.73335 13.8875 2.14928C13.642 1.55695 13.2787 0.832618 12.9609 0.267521C12.9367 0.225929 12.8899 0.204415 12.8431 0.211588C10.2719 0.656218 7.81134 1.43502 5.5154 2.49353C5.49553 2.50213 5.47849 2.51649 5.46718 2.53512C0.800088 9.53583 -0.478425 16.3645 0.14877 23.1084C0.151608 23.1414 0.170055 23.173 0.195597 23.1931C3.27481 25.4635 6.25756 26.8419 9.18492 27.7555C9.23177 27.7698 9.28141 27.7526 9.31122 27.7139C10.0037 26.7644 10.621 25.7633 11.1502 24.7105C11.1814 24.6489 11.1516 24.5757 11.0878 24.5513C10.1087 24.1784 9.1764 23.7237 8.27959 23.2074C8.20866 23.1658 8.20298 23.064 8.26824 23.0152C8.45696 22.8732 8.64573 22.7255 8.82593 22.5763C8.85853 22.5491 8.90397 22.5433 8.9423 22.5605C14.8339 25.2613 21.2123 25.2613 27.0344 22.5605C27.0728 22.5419 27.1182 22.5476 27.1522 22.5749C27.3325 22.724 27.5212 22.8732 27.7113 23.0152C27.7766 23.064 27.7723 23.1658 27.7014 23.2074C26.8046 23.7338 25.8723 24.1784 24.8918 24.5499C24.8279 24.5743 24.7995 24.6489 24.8308 24.7105C25.3714 25.7618 25.9887 26.763 26.6683 27.7125C26.6967 27.7526 26.7478 27.7698 26.7946 27.7555C29.7362 26.8419 32.7189 25.4635 35.7981 23.1931C35.8251 23.173 35.8422 23.1429 35.845 23.1099C36.5956 15.3131 34.5877 8.54046 30.5223 2.53654C30.5124 2.51649 30.4954 2.50213 30.4755 2.49353ZM12.03 19.0021C10.2562 19.0021 8.7947 17.367 8.7947 15.359C8.7947 13.351 10.2279 11.716 12.03 11.716C13.8463 11.716 15.2937 13.3654 15.2653 15.359C15.2653 17.367 13.8321 19.0021 12.03 19.0021ZM23.9921 19.0021C22.2184 19.0021 20.7568 17.367 20.7568 15.359C20.7568 13.351 22.19 11.716 23.9921 11.716C25.8084 11.716 27.2558 13.3654 27.2275 15.359C27.2275 17.367 25.8084 19.0021 23.9921 19.0021Z" fill="#5865F2"/>
</svg>
