<svg width="34" height="34" viewBox="0 0 34 34" fill="none" xmlns="http://www.w3.org/2000/svg">
<path d="M7.07111 21.268C7.07111 23.2139 5.48148 24.8035 3.53556 24.8035C1.58963 24.8035 0 23.2139 0 21.268C0 19.322 1.58963 17.7324 3.53556 17.7324H7.07111V21.268Z" fill="#E01E5A"/>
<path d="M8.85254 21.268C8.85254 19.322 10.4422 17.7324 12.3881 17.7324C14.334 17.7324 15.9236 19.322 15.9236 21.268V30.1206C15.9236 32.0665 14.334 33.6561 12.3881 33.6561C10.4422 33.6561 8.85254 32.0665 8.85254 30.1206V21.268Z" fill="#E01E5A"/>
<path d="M12.3881 7.07111C10.4422 7.07111 8.85254 5.48148 8.85254 3.53556C8.85254 1.58963 10.4422 0 12.3881 0C14.334 0 15.9236 1.58963 15.9236 3.53556V7.07111H12.3881Z" fill="#36C5F0"/>
<path d="M12.3881 8.85254C14.3341 8.85254 15.9237 10.4422 15.9237 12.3881C15.9237 14.334 14.3341 15.9236 12.3881 15.9236H3.53556C1.58963 15.9236 0 14.334 0 12.3881C0 10.4422 1.58963 8.85254 3.53556 8.85254H12.3881Z" fill="#36C5F0"/>
<path d="M26.5852 12.3881C26.5852 10.4422 28.1748 8.85254 30.1208 8.85254C32.0667 8.85254 33.6563 10.4422 33.6563 12.3881C33.6563 14.334 32.0667 15.9236 30.1208 15.9236H26.5852V12.3881Z" fill="#2EB67D"/>
<path d="M24.8038 12.3881C24.8038 14.3341 23.2141 15.9237 21.2682 15.9237C19.3223 15.9237 17.7327 14.3341 17.7327 12.3881V3.53556C17.7327 1.58963 19.3223 0 21.2682 0C23.2141 0 24.8038 1.58963 24.8038 3.53556V12.3881Z" fill="#2EB67D"/>
<path d="M21.2682 26.585C23.2141 26.585 24.8038 28.1746 24.8038 30.1205C24.8038 32.0664 23.2141 33.6561 21.2682 33.6561C19.3223 33.6561 17.7327 32.0664 17.7327 30.1205V26.585H21.2682Z" fill="#ECB22E"/>
<path d="M21.2682 24.8035C19.3223 24.8035 17.7327 23.2139 17.7327 21.268C17.7327 19.322 19.3223 17.7324 21.2682 17.7324H30.1208C32.0667 17.7324 33.6564 19.322 33.6564 21.268C33.6564 23.2139 32.0667 24.8035 30.1208 24.8035H21.2682Z" fill="#ECB22E"/>
</svg>
